<svg width="79" height="31" viewBox="0 0 79 31" fill="none" xmlns="http://www.w3.org/2000/svg">
<rect x="0.197266" width="77.9027" height="30.7309" rx="15.3654" fill="#38BFF2"/>
<path d="M33.5174 15.5094C34.0694 15.1254 34.4294 14.5134 34.4294 13.7574C34.4294 12.4614 33.3854 11.4654 32.0774 11.4654H28.7174V19.8654H32.3414C33.6974 19.8654 34.7774 18.8334 34.7774 17.4894C34.7774 16.5774 34.2734 15.8694 33.5174 15.5094ZM32.0774 12.5094C32.7734 12.5094 33.3254 13.0854 33.3254 13.7934C33.3254 14.5134 32.7734 15.0774 32.0774 15.0774H29.8334V12.5094H32.0774ZM32.3414 18.8214H29.8334V16.0974H32.3414C33.0854 16.0974 33.6734 16.6974 33.6734 17.4534C33.6734 18.2214 33.0854 18.8214 32.3414 18.8214ZM38.8474 20.0214C40.5994 20.0214 42.0154 18.6414 42.0154 16.8654C42.0154 15.0894 40.5994 13.7094 38.8474 13.7094C37.0954 13.7094 35.6914 15.0894 35.6914 16.8654C35.6914 18.6414 37.0954 20.0214 38.8474 20.0214ZM38.8474 19.0014C37.6594 19.0014 36.7354 18.0774 36.7354 16.8654C36.7354 15.6534 37.6594 14.7294 38.8474 14.7294C40.0474 14.7294 40.9714 15.6534 40.9714 16.8654C40.9714 18.0774 40.0474 19.0014 38.8474 19.0014ZM44.2301 12.9654H47.4701V12.0534H44.2301V12.9654ZM47.6021 13.8654L44.2781 18.0774V13.8654H43.2461V19.8654H44.0861L47.4101 15.6534V19.8654H48.4421V13.8654H47.6021ZM54.4953 13.8654H49.3593V14.8734H51.4113V19.8654H52.4553V14.8734H54.4953V13.8654ZM59.7662 13.8654L56.4422 18.0774V13.8654H55.4102V19.8654H56.2502L59.5742 15.6534V19.8654H60.6062V13.8654H59.7662Z" fill="white"/>
<path d="M19.7764 11.4297L23.7121 15.3655L19.7764 19.3013" stroke="white"/>
<path d="M23.7322 15.3673H15.1514" stroke="white"/>
</svg>
