<svg width="249" height="70" viewBox="0 0 249 70" fill="none" xmlns="http://www.w3.org/2000/svg">
<rect width="249" height="70" rx="35" fill="#F15525"/>
<path d="M186.799 41.9247C186.408 42.3153 186.408 42.9484 186.799 43.3389C187.189 43.7295 187.822 43.7295 188.213 43.3389L186.799 41.9247ZM201.506 29.6318C201.506 29.0796 201.058 28.6318 200.506 28.6318L191.506 28.6318C190.954 28.6318 190.506 29.0796 190.506 29.6318C190.506 30.1841 190.954 30.6318 191.506 30.6318H199.506L199.506 38.6318C199.506 39.1841 199.954 39.6318 200.506 39.6318C201.058 39.6318 201.506 39.1841 201.506 38.6318L201.506 29.6318ZM188.213 43.3389L201.213 30.3389L199.799 28.9247L186.799 41.9247L188.213 43.3389Z" fill="white"/>
<path d="M57.6599 29.3151V34.2271H51.5799V29.3151H50.4599V40.5151H51.5799V35.2831H57.6599V40.5151H58.7799V29.3151H57.6599ZM67.5749 32.5151V34.0831C66.9029 33.0111 65.7669 32.3231 64.3429 32.3231C62.0869 32.3231 60.2149 34.1471 60.2149 36.5151C60.2149 38.8831 62.0869 40.7071 64.3429 40.7071C65.7669 40.7071 66.9029 40.0191 67.5749 38.9471V40.5151H68.6309V32.5151H67.5749ZM64.4229 39.6831C62.6469 39.6831 61.2709 38.2911 61.2709 36.5151C61.2709 34.7391 62.6469 33.3471 64.4229 33.3471C66.1989 33.3471 67.5749 34.7391 67.5749 36.5151C67.5749 38.2911 66.1989 39.6831 64.4229 39.6831ZM75.5708 32.5151V36.4991C74.8668 36.8031 74.0508 36.9631 73.2508 36.9631C71.8748 36.9631 71.1228 36.4671 71.1228 35.0751V32.5151H70.0668V35.0751C70.0668 36.9951 71.2188 37.9551 73.2828 37.9551C74.1148 37.9551 74.9468 37.7951 75.5708 37.4751V40.5151H76.6268V32.5151H75.5708ZM85.2711 32.5151V34.0831C84.5991 33.0111 83.4631 32.3231 82.0391 32.3231C79.7831 32.3231 77.9111 34.1471 77.9111 36.5151C77.9111 38.8831 79.7831 40.7071 82.0391 40.7071C83.4631 40.7071 84.5991 40.0191 85.2711 38.9471V40.5151H86.3271V32.5151H85.2711ZM82.1191 39.6831C80.3431 39.6831 78.9671 38.2911 78.9671 36.5151C78.9671 34.7391 80.3431 33.3471 82.1191 33.3471C83.8951 33.3471 85.2711 34.7391 85.2711 36.5151C85.2711 38.2911 83.8951 39.6831 82.1191 39.6831ZM93.843 32.5151H87.123V33.5391H89.955V40.5151H91.011V33.5391H93.843V32.5151ZM97.8979 35.5551H95.7059V32.5151H94.6499V40.5151H97.8979C99.3539 40.5151 100.57 39.5071 100.57 38.0351C100.57 36.5631 99.3539 35.5551 97.8979 35.5551ZM97.8979 39.4911H95.7059V36.5791H97.8979C98.7619 36.5791 99.5139 37.1231 99.5139 38.0351C99.5139 38.9471 98.7619 39.4911 97.8979 39.4911ZM108.934 40.7071C111.27 40.7071 113.142 38.8831 113.142 36.5151C113.142 34.1471 111.27 32.3231 108.934 32.3231C106.598 32.3231 104.726 34.1471 104.726 36.5151C104.726 38.8831 106.598 40.7071 108.934 40.7071ZM108.934 39.6831C107.158 39.6831 105.782 38.2911 105.782 36.5151C105.782 34.7391 107.158 33.3471 108.934 33.3471C110.71 33.3471 112.086 34.7391 112.086 36.5151C112.086 38.2911 110.71 39.6831 108.934 39.6831ZM117.981 40.7071C120.237 40.7071 121.901 39.1231 121.901 36.9631C121.901 34.7871 120.333 33.2351 118.205 33.2351C117.293 33.2351 115.981 33.5871 115.181 34.6431C115.485 33.5231 116.093 32.9311 117.581 32.2911C119.149 31.6031 120.813 31.1551 121.069 29.5551L120.237 29.0751C120.045 30.4351 118.685 30.6591 117.021 31.4591C114.429 32.7071 113.949 34.0191 113.949 36.5951C113.949 39.0591 115.725 40.7071 117.981 40.7071ZM117.981 39.6511C116.349 39.6511 115.069 38.4991 115.069 36.8671C115.069 35.1871 116.669 34.2591 118.061 34.2591C119.757 34.2591 120.845 35.3951 120.845 36.9631C120.845 38.5151 119.661 39.6511 117.981 39.6511ZM128.474 32.5151L125.882 39.2191L122.874 32.5151H121.754L125.338 40.5631L125.13 41.0591C124.698 42.0991 123.978 42.8351 122.938 42.7231V43.7151C124.378 43.8271 125.562 42.7871 126.17 41.2511L129.594 32.5151H128.474ZM135.575 32.5151V36.4991C134.871 36.8031 134.055 36.9631 133.255 36.9631C131.879 36.9631 131.127 36.4671 131.127 35.0751V32.5151H130.071V35.0751C130.071 36.9951 131.223 37.9551 133.287 37.9551C134.119 37.9551 134.951 37.7951 135.575 37.4751V40.5151H136.631V32.5151H135.575ZM142.091 32.3231C139.611 32.3231 137.915 34.1631 137.915 36.5151C137.915 38.9311 139.643 40.7071 142.171 40.7071C143.787 40.7071 145.019 39.9551 145.691 38.8671L144.763 38.3231C144.331 39.0911 143.451 39.6831 142.187 39.6831C140.491 39.6831 139.227 38.6751 139.003 37.0431H146.027C146.043 36.8831 146.059 36.7071 146.059 36.5471C146.059 34.3551 144.539 32.3231 142.091 32.3231ZM142.091 33.3471C143.467 33.3471 144.747 34.2591 144.971 36.0191H139.003C139.211 34.4511 140.411 33.3471 142.091 33.3471ZM152.923 32.5151V36.0031H148.315V32.5151H147.259V40.5151H148.315V37.0271H152.923V40.5151H153.979V32.5151H152.923ZM161.556 32.5151L156.788 38.6751V32.5151H155.732V40.5151H156.628L161.396 34.3551V40.5151H162.452V32.5151H161.556ZM167.901 32.3231C165.421 32.3231 163.725 34.1631 163.725 36.5151C163.725 38.9311 165.453 40.7071 167.981 40.7071C169.597 40.7071 170.829 39.9551 171.501 38.8671L170.573 38.3231C170.141 39.0911 169.261 39.6831 167.997 39.6831C166.301 39.6831 165.037 38.6751 164.813 37.0431H171.837C171.853 36.8831 171.869 36.7071 171.869 36.5471C171.869 34.3551 170.349 32.3231 167.901 32.3231ZM167.901 33.3471C169.277 33.3471 170.557 34.2591 170.781 36.0191H164.813C165.021 34.4511 166.221 33.3471 167.901 33.3471Z" fill="white"/>
</svg>
